<?xml version="1.0" encoding="UTF-8"?>
<!DOCTYPE svg  PUBLIC '-//W3C//DTD SVG 1.1//EN'  'http://www.w3.org/Graphics/SVG/1.1/DTD/svg11.dtd'>
<svg width="160.26mm" height="160.26mm" fill-rule="evenodd" stroke-linejoin="round" stroke-width="28.222" preserveAspectRatio="xMidYMid" version="1.2" viewBox="0 0 16026 16026" xmlns="http://www.w3.org/2000/svg" xmlns:ooo="http://xml.openoffice.org/svg/export"><defs class="ClipPathGroup"><clipPath id="presentation_clip_path"><rect width="16026" height="16026"/></clipPath></defs><defs class="TextShapeIndex"></defs><defs class="EmbeddedBulletChars"></defs><g id="id2" class="Master_Slide"></g><g class="SlideGroup"><g id="container-id1"><g id="id1" class="Slide" clip-path="url(#presentation_clip_path)"><g class="Page"><g class="Group"><g class="com.sun.star.drawing.PolyPolygonShape"><g id="id3"><rect class="BoundingBox" x="3954" y="6241" width="7873" height="6843" fill="none"/><path d="m7891 13083-3936-6841h7870l-3934 6841z" fill="#729fcf"/></g><g id="id4" fill="none"><rect class="BoundingBox" x="3848" y="6135" width="8085" height="7055"/><path d="m7891 13083-3936-6841h7870l-3934 6841z" stroke="#001d41" stroke-linejoin="round" stroke-width="212"/></g><g id="id5"><rect class="BoundingBox" x="1900" y="6240" width="5993" height="6845" fill="none"/><path d="m3955 6241-2054 6329 5991 514-3937-6843z" fill="#5a83af"/></g><g id="id6" fill="none"><rect class="BoundingBox" x="1794" y="6134" width="6205" height="7057"/><path d="m3955 6241-2054 6329 5991 514-3937-6843z" stroke="#001d41" stroke-linejoin="round" stroke-width="212"/></g><g id="id7"><rect class="BoundingBox" x="7891" y="6240" width="5650" height="6845" fill="none"/><path d="m13539 11887-5647 1197 3935-6843 1712 5646z" fill="#8abcf1"/></g><g id="id8" fill="none"><rect class="BoundingBox" x="7785" y="6134" width="5862" height="7057"/><path d="m13539 11887-5647 1197 3935-6843 1712 5646z" stroke="#001d41" stroke-linejoin="round" stroke-width="212"/></g><g id="id9"><rect class="BoundingBox" x="3954" y="2818" width="7875" height="3424" fill="none"/><path d="m8404 2819-1026 684-3423 2738h7872l-3423-3422z" fill="#5a83af"/></g><g id="id10" fill="none"><rect class="BoundingBox" x="3848" y="2712" width="8087" height="3636"/><path d="m8404 2819-1026 684-3423 2738h7872l-3423-3422z" stroke="#001d41" stroke-linejoin="round" stroke-width="212"/></g><g id="id11"><rect class="BoundingBox" x="1900" y="12570" width="6164" height="3083" fill="none"/><path d="m1901 12570 6161 3081-170-2567-5991-514z" fill="#3e5771"/></g><g id="id12" fill="none"><rect class="BoundingBox" x="1794" y="12464" width="6376" height="3295"/><path d="m1901 12570 6161 3081-170-2567-5991-514z" stroke="#001d41" stroke-linejoin="round" stroke-width="212"/></g><g id="id13"><rect class="BoundingBox" x="7891" y="11886" width="5650" height="3767" fill="none"/><path d="m13539 11887-5477 3764-170-2738v171l5647-1197z" fill="#5a83af"/></g><g id="id14" fill="none"><rect class="BoundingBox" x="7785" y="11780" width="5862" height="3979"/><path d="m13539 11887-5477 3764-170-2738v171l5647-1197z" stroke="#001d41" stroke-linejoin="round" stroke-width="212"/></g><g id="id15"><rect class="BoundingBox" x="11827" y="6069" width="1714" height="5819" fill="none"/><path d="m11827 6241 1712-171v5817l-1712-5646z" fill="#5a83af"/></g><g id="id16" fill="none"><rect class="BoundingBox" x="11721" y="5963" width="1926" height="6031"/><path d="m11827 6241 1712-171v5817l-1712-5646z" stroke="#001d41" stroke-linejoin="round" stroke-width="212"/></g><g id="id17"><rect class="BoundingBox" x="8404" y="2818" width="5137" height="3424" fill="none"/><path d="m8404 2819 5135 3251-1712 171-3423-3422z" fill="#3e5771"/></g><g id="id18" fill="none"><rect class="BoundingBox" x="8298" y="2712" width="5349" height="3636"/><path d="m8404 2819 5135 3251-1712 171-3423-3422z" stroke="#001d41" stroke-linejoin="round" stroke-width="212"/></g><g id="id19"><rect class="BoundingBox" x="2928" y="2818" width="5478" height="3424" fill="none"/><path d="m2928 6070 1027 171 4449-3422-5476 3251z" fill="#3e5771"/></g><g id="id20" fill="none"><rect class="BoundingBox" x="2822" y="2712" width="5690" height="3636"/><path d="m2928 6070 1027 171 4449-3422-5476 3251z" stroke="#001d41" stroke-linejoin="round" stroke-width="212"/></g><g id="id21"><rect class="BoundingBox" x="1900" y="6069" width="2056" height="6503" fill="none"/><path d="m3955 6241-2054 6329 1027-6500 1027 171z" fill="#2c3f53"/></g><g id="id22" fill="none"><rect class="BoundingBox" x="1794" y="5963" width="2268" height="6715"/><path d="m3955 6241-2054 6329 1027-6500 1027 171z" stroke="#001d41" stroke-linejoin="round" stroke-width="212"/></g></g></g><g class="com.sun.star.drawing.ClosedBezierShape"><g id="id23"><rect class="BoundingBox" x="6076" y="171" width="3601" height="3601" fill="none"/><path d="m9596 1972c0 301-79 598-230 859-152 262-368 478-630 630-262 151-559 230-860 230-300 0-598-79-859-230-263-152-480-368-631-630-151-261-230-558-230-859 0-303 79-600 230-861 151-262 368-478 630-630 262-151 560-230 860-230 301 0 598 79 860 230 262 152 478 368 630 630 151 261 230 558 230 859v2z" fill="#333"/><path d="m9596 1972c0 301-79 598-230 859-152 262-368 478-630 630-262 151-559 230-860 230-300 0-598-79-859-230-263-152-480-368-631-630-151-261-230-558-230-859 0-303 79-600 230-861 151-262 368-478 630-630 262-151 560-230 860-230 301 0 598 79 860 230 262 152 478 368 630 630 151 261 230 558 230 859v2z" fill="none" stroke="#111" stroke-linejoin="round" stroke-width="159"/></g></g><g class="com.sun.star.drawing.PolyPolygonShape"><g id="id24"><rect class="BoundingBox" x="5964" y="3670" width="3710" height="6301" fill="none"/><path d="m9593 9890h-3549l888-6140h1774l887 6140z" fill="#333"/><path d="m9593 9890h-3549l888-6140h1774l887 6140z" fill="none" stroke="#111" stroke-linejoin="round" stroke-width="159"/></g></g><g class="com.sun.star.drawing.ClosedBezierShape"><g id="id25"><rect class="BoundingBox" x="5633" y="3267" width="4517" height="829" fill="none"/><path d="m10069 3682c0 57-101 115-292 166-192 50-466 93-797 122-331 30-707 45-1088 45-384 0-759-15-1090-45-332-29-606-72-798-122-190-51-291-109-291-166 0-59 101-117 291-167 192-51 466-94 798-123 331-29 706-45 1089-45 382 0 758 16 1089 45s605 72 797 123c191 50 292 108 292 166v1z" fill="#333"/><path d="m10069 3682c0 57-101 115-292 166-192 50-466 93-797 122-331 30-707 45-1088 45-384 0-759-15-1090-45-332-29-606-72-798-122-190-51-291-109-291-166 0-59 101-117 291-167 192-51 466-94 798-123 331-29 706-45 1089-45 382 0 758 16 1089 45s605 72 797 123c191 50 292 108 292 166v1z" fill="none" stroke="#111" stroke-linejoin="round" stroke-width="159"/></g><g id="id26"><rect class="BoundingBox" x="4821" y="9347" width="6160" height="1107" fill="none"/><path d="m10900 9899c0 83-138 165-402 237-263 72-642 132-1098 174-456 41-973 63-1498 63-528 0-1046-22-1502-63-455-42-834-102-1097-174-264-72-402-154-402-237s138-165 402-237c263-72 642-131 1097-172 456-42 974-63 1500-63 527 0 1044 21 1500 63 456 41 835 100 1098 172 264 72 402 154 402 237z" fill="#333"/><path d="m10900 9899c0 83-138 165-402 237-263 72-642 132-1098 174-456 41-973 63-1498 63-528 0-1046-22-1502-63-455-42-834-102-1097-174-264-72-402-154-402-237s138-165 402-237c263-72 642-131 1097-172 456-42 974-63 1500-63 527 0 1044 21 1500 63 456 41 835 100 1098 172 264 72 402 154 402 237z" fill="none" stroke="#111" stroke-linejoin="round" stroke-width="159"/></g><g id="id27"><rect class="BoundingBox" x="4822" y="9876" width="6161" height="1106" fill="none"/><path d="m10902 10429c0 82-139 164-403 236-263 71-641 132-1097 174-456 41-974 62-1499 62-528 0-1045-21-1501-62-456-42-835-103-1098-174-264-72-402-154-402-236 0-83 138-165 402-237 263-71 642-132 1098-173 456-42 973-63 1500-63 526 0 1044 21 1500 63 456 41 834 102 1097 173 264 72 403 154 403 237z" fill="#333"/><path d="m10902 10429c0 82-139 164-403 236-263 71-641 132-1097 174-456 41-974 62-1499 62-528 0-1045-21-1501-62-456-42-835-103-1098-174-264-72-402-154-402-236 0-83 138-165 402-237 263-71 642-132 1098-173 456-42 973-63 1500-63 526 0 1044 21 1500 63 456 41 834 102 1097 173 264 72 403 154 403 237z" fill="none" stroke="#111" stroke-linejoin="round" stroke-width="159"/></g></g></g></g></g></g></svg>
